<svg width="341" height="214" viewBox="0 0 341 214" fill="none" xmlns="http://www.w3.org/2000/svg">
<path opacity="0.981" d="M337.544 202.704C338.998 205.955 339.825 209.45 339.982 213.004C320.61 213.163 301.24 212.998 281.872 212.509C272.005 180.625 251.943 157.628 221.711 143.547L221.692 143.538L221.673 143.531C213.233 140.417 204.48 138.229 195.568 137.005L195.021 136.929L195 137.481C194.063 162.644 193.728 187.826 193.995 213.004C148.075 213.367 110.116 202.774 80.0801 181.261C49.9371 159.671 27.7285 127.05 13.4775 83.3516C5.62597 56.816 1.4704 29.7146 1.00868 2.04525C4.04816 2.27106 6.90867 1.92506 9.58454 1H55.3093C56.3305 1.9343 57.0619 3.12068 57.5006 4.57479C57.7608 36.8732 64.7769 67.5892 78.548 96.7137L78.5551 96.7287L78.5631 96.7431C88.6366 114.843 102.189 129.735 119.217 141.412L119.236 141.425L119.255 141.436C124.695 144.493 130.418 147.018 136.343 148.975L136.445 149.008L136.552 148.997C137.554 148.893 138.507 148.511 139.305 147.896L139.497 147.748L139.5 147.505C139.998 99.0051 140.166 50.503 140.002 2H194.004C194.209 28.5296 194.208 55.0277 194 81.4961L194 81.5387L194.007 81.5809C194.221 82.8881 194.745 83.8989 195.648 84.5013C196.545 85.0992 197.717 85.228 199.085 84.9928L199.101 84.99L199.116 84.9863C216.309 80.8723 230.733 72.151 242.375 58.831C256.454 43.05 266.809 25.028 273.438 4.769L275.723 2.48443C278.196 2.28748 280.487 1.79387 282.592 1H324.267C324.646 1.42201 325.099 1.72727 325.624 1.90223C326.018 2.03366 326.44 2.08726 326.885 2.07109C321.606 30.162 309.524 54.8542 290.636 76.1571L274.166 92.6271C268.333 97.3127 262.345 101.803 256.213 106.09L255.571 106.539L256.249 106.933C294.625 129.191 321.715 161.101 337.533 202.678L337.538 202.691L337.544 202.704Z" fill="black" stroke="black"/>
</svg>
