<svg width="479" height="481" viewBox="0 0 479 481" fill="none" xmlns="http://www.w3.org/2000/svg">
<path fill-rule="evenodd" clip-rule="evenodd" d="M217 1.10801C132.665 10.914 62.769 59.667 26.475 134C15.482 156.514 8.25899 179.566 4.38499 204.5C1.89899 220.497 1.85299 255.495 4.29599 271.5C8.24699 297.381 15.84 321.735 26.969 344.225L33.651 357.728L16.902 418.857C7.68999 452.478 0.333993 480.167 0.554993 480.388C0.774993 480.609 29.204 473.373 63.728 464.308L126.5 447.826L135.317 452.213C189.493 479.165 254.544 484.051 312.331 465.509C364.361 448.814 408.919 414.942 439.29 369C458.637 339.734 472.005 303.798 476.489 269C478.636 252.342 478.641 224.156 476.5 208C467.291 138.502 430.147 78.892 371.676 39.773C351.297 26.14 323.874 13.828 300.66 7.89101C280.003 2.60701 270.078 1.39601 244.5 1.03801C231.3 0.853005 218.925 0.884005 217 1.10801ZM212.5 43.066C156.12 51.666 107.34 82.481 76.467 129C60.132 153.612 50.519 178.008 45.336 208C42.93 221.919 42.93 255.081 45.336 269C49.969 295.812 57.918 317.58 71.297 340.095L77.89 351.191L68.047 387.095C62.633 406.843 58.277 423.082 58.367 423.182C58.457 423.282 74.679 419.119 94.416 413.932C114.153 408.744 130.968 404.5 131.782 404.5C132.596 404.5 137.183 406.743 141.975 409.485C206.677 446.512 287.459 443.943 348.988 402.902C400.953 368.239 433.152 312.526 436.956 250.692C440.478 193.442 420.063 139.507 379.528 98.972C347.924 67.367 308.351 48.036 264.026 42.549C252.398 41.109 223.422 41.4 212.5 43.066ZM146.927 130.477C141.883 133.144 131.776 144.278 127.652 151.711C121.646 162.536 119.533 171.228 119.558 185C119.575 194.313 120.079 198.791 121.813 205C129.625 232.988 160.939 275.636 195.316 305.109C218.095 324.638 239.157 336.237 271.5 347.064C298.254 356.02 318.048 355.069 336.529 343.94C350.359 335.612 355.463 329.384 358.901 316.642C361.244 307.961 361.667 296.768 359.75 294.224C358.187 292.151 311.027 269.061 305.254 267.542C302.293 266.763 300.422 266.739 299.071 267.462C298.005 268.033 292.875 273.787 287.671 280.25C275.322 295.584 272.904 297.83 268.87 297.715C264.246 297.584 239.074 284.721 228.614 277.144C223.726 273.605 215.909 266.949 211.243 262.354C196.083 247.428 180.159 224.988 181.352 220.232C181.667 218.978 184.441 214.812 187.517 210.976C196.381 199.919 201 192.541 201 189.439C201 187.881 197.13 177.245 192.401 165.803C179.942 135.664 178.99 133.669 175.768 130.958C173.038 128.661 172.115 128.503 161.673 128.544C152.707 128.58 149.794 128.961 146.927 130.477Z" fill="black"/>
</svg>
