<svg width="512" height="512" viewBox="0 0 512 512" fill="none" xmlns="http://www.w3.org/2000/svg">
<path fill-rule="evenodd" clip-rule="evenodd" d="M354.5 1.59102C336.625 4.74502 318.77 11.993 302.563 22.675C293.743 28.488 286.621 35.186 244.902 76.904C218.722 103.082 194.995 127.65 192.175 131.5C181.212 146.465 172.136 167.497 168.342 186.73C165.714 200.052 165.976 224.356 168.894 238C173.237 258.305 183.46 280.804 191.456 287.655C195.433 291.062 203.093 294 208 294C218.245 294 229.185 285.981 232.482 276.055C235.023 268.403 234.11 262.161 228.947 251.903C226.621 247.281 223.674 240.436 222.399 236.691C214.383 213.16 218.391 185.338 232.826 164.322C235.026 161.12 257.452 137.973 282.663 112.884C333.026 62.764 333.944 62.009 352 55.875C360.297 53.056 363.147 52.593 374.5 52.221C385.303 51.866 389 52.152 396.377 53.909C427.069 61.219 450.762 84.872 458.072 115.5C459.877 123.065 460.146 126.573 459.761 137.5C459.364 148.751 458.872 151.778 456.1 160C450.33 177.118 447.888 180.267 413.341 215.125C379.152 249.622 377.632 251.612 377.569 262C377.521 269.894 380.237 276.128 385.97 281.283C391.444 286.204 396.309 288 404.17 288C414.102 288 416.606 286.04 451.124 251.259C477.247 224.935 483.781 217.778 489.299 209.437C504.855 185.925 512 162.34 512 134.5C512 97.598 498.233 64.438 472.282 38.836C452.223 19.045 427.2 6.13602 400.074 1.58202C388.451 -0.36898 365.582 -0.36398 354.5 1.59102ZM295.64 219.632C288.965 221.682 281.872 228.859 279.518 235.945C276.927 243.747 277.873 249.796 283.408 260.817C290.691 275.319 293.228 285.204 293.336 299.5C293.437 312.796 292.234 319.734 287.839 331.209C282.182 345.978 278.407 350.355 228.871 399.583C183.185 444.986 182.367 445.734 173.5 450.232C159.522 457.323 152.584 459.153 137.5 459.726C126.5 460.144 123.115 459.889 115.5 458.072C100.545 454.51 86.8719 446.869 76.0015 435.998C65.1311 425.128 57.4898 411.455 53.9279 396.5C52.1229 388.935 51.8539 385.427 52.2389 374.5C52.6359 363.249 53.1279 360.222 55.8999 352C61.4609 335.501 64.6929 331.163 92.0259 303.5C107.128 288.217 117.58 276.822 118.92 274.182C127.686 256.903 115.034 236.504 95.6639 236.687C85.1939 236.785 82.4839 238.788 54.4409 267.153C22.4779 299.484 14.4989 310.967 6.08791 336.744C0.032907 355.299 -1.74309 380.264 1.58191 400.074C9.79191 448.985 44.9429 489.802 92.3559 505.481C106.158 510.045 118.796 512 134.5 512C162.322 512 185.872 504.871 209.437 489.314C218.15 483.562 225.647 476.558 265.339 437.086C314.558 388.138 321.74 379.934 330.783 362.327C341.304 341.845 345.397 324.495 345.37 300.5C345.349 281.68 343.23 269.789 336.91 253.018C329.147 232.417 321.631 222.453 311.612 219.477C305.506 217.664 301.934 217.699 295.64 219.632Z" fill="black"/>
</svg>
