<svg width="512" height="444" viewBox="0 0 512 444" fill="none" xmlns="http://www.w3.org/2000/svg">
<path opacity="0.987" fill-rule="evenodd" clip-rule="evenodd" d="M511.5 9V22C484.475 156.295 457.641 290.628 431 425C420.786 443.587 405.952 448.421 386.5 439.5C323.983 391.739 261.649 343.739 199.5 295.5C274.701 228.391 349.701 161.057 424.5 93.5C428.343 89.9946 431.858 86.1452 435 82C436.494 76.164 434.327 73.998 428.5 75.5C423.582 77.2923 418.885 79.6409 414.5 82.5C319.907 143.045 225.073 203.212 130 263C92.901 250.3 55.7337 237.8 18.5 225.5C10.02 222.291 3.687 216.791 -0.5 209V198C3.802 191.873 9.469 187.373 16.5 184.5C169.577 124.697 322.577 64.6967 475.5 4.5C485.346 0.0720041 495.346 -0.594996 505.5 2.5C507.856 4.414 509.856 6.58 511.5 9Z" fill="black"/>
</svg>
